# xmcd
#
# Track frame offsets:
#	150
#	8651
#	24709
#	42270
#	57276
#	77736
#	103288
#	126333
#	143757
#	163604
#	182630
#	201507
#	210871
#	230332
#	250565
#
# Disc length: 3522 seconds
#
# Revision: 0
# Processed by: cddbd v1.4PL0 Copyright (c) Steve Scherf et al.
# Submitted via: dBpowerAMP V4.0
#
DISCID=c60dc00f
DTITLE=KEYS ALICIA - SONGS IN A MINOR
DYEAR=1900
DGENRE=Blues
TTITLE0=Piano and I
TTITLE1=Girlfriend
TTITLE2=How Come You Don't Call Me
TTITLE3=Fallin'
TTITLE4=Troubles
TTITLE5=Rock Wit U
TTITLE6=A Woman's Worth
TTITLE7=Jane Doe
TTITLE8=Goodbye
TTITLE9=The Life
TTITLE10=Mr Man
TTITLE11=Never Felt This Way
TTITLE12=Butterflyz
TTITLE13=Why Do I Feel So Bad
TTITLE14=Caged Bird
EXTD=
EXTT0=
EXTT1=
EXTT2=
EXTT3=
EXTT4=
EXTT5=
EXTT6=
EXTT7=
EXTT8=
EXTT9=
EXTT10=
EXTT11=
EXTT12=
EXTT13=
EXTT14=
PLAYORDER=
